# xmcd
#
# Track frame offsets:
#   150
#   19636
#   35701
#   50095
#   67211
#   83245
#   98868
#   112580
#   129662
#   145981
#   161549
#   177038
#   189378
#   206993
#   221926
#   238013
#   250686
#   264326
#   281369
#   293667
#   305345
#   319235
#
# Disc length: 4425 seconds
#
# Revision: 0
# Processed by: cddbd v1.5.1PL2 Copyright (c) Steve Scherf et al.
# Submitted via: uFREEDB ActiveX Control 1.5
#
DISCID=47114716
DTITLE=Diversos - By Marcelo
DYEAR=1900
DGENRE=Country
TTITLE0=Xote dos milagres
TTITLE1=Rindo a toa
TTITLE2=Colo de menina
TTITLE3=Xote da Alegria
TTITLE4=100 anos
TTITLE5=Coracao
TTITLE6=Apaixonado por voce
TTITLE7=Nois trupica mais num cai
TTITLE8=Ela chorou de amor
TTITLE9=Sombra e agua fresca
TTITLE10=O chao vai tremer
TTITLE11=De bem com a vida
TTITLE12=Bebedeira
TTITLE13=Pra la de Bagda
TTITLE14=Brega demais
TTITLE15=E pra la que eu vou
TTITLE16=Apaziguar
TTITLE17=Galera felicidade
TTITLE18=E na sola da bota
TTITLE19=Chega Junto
TTITLE20=Ajeite o trem
TTITLE21=Clube do batidao
EXTD=
EXTT0=
EXTT1=
EXTT2=
EXTT3=
EXTT4=
EXTT5=
EXTT6=
EXTT7=
EXTT8=
EXTT9=
EXTT10=
EXTT11=
EXTT12=
EXTT13=
EXTT14=
EXTT15=
EXTT16=
EXTT17=
EXTT18=
EXTT19=
EXTT20=
EXTT21=
PLAYORDER=
